<?xml version="1.0" encoding="utf-8"?>
<!-- Generator: Adobe Illustrator 19.0.0, SVG Export Plug-In . SVG Version: 6.00 Build 0)  -->
<svg xmlns="http://www.w3.org/2000/svg" xmlns:xlink="http://www.w3.org/1999/xlink" version="1.1" id="Layer_1" x="0px" y="0px" viewBox="0 2 98 98" style="enable-background:new 0 2 98 98;" xml:space="preserve" width="512" height="512">
<style type="text/css">
	.st0{fill:url(#SVGID_1_);}
	.st1{fill:url(#SVGID_2_);}
	.st2{fill:url(#SVGID_3_);}
	.st3{fill:url(#SVGID_4_);}
	.st4{fill:url(#SVGID_5_);}
	.st5{fill:url(#SVGID_6_);}
</style>
<g>
	<linearGradient id="SVGID_1_" gradientUnits="userSpaceOnUse" x1="49" y1="4.5667" x2="49" y2="97.4096">
		<stop offset="0" style="stop-color:#00EFD1"/>
		<stop offset="1" style="stop-color:#00ACEA"/>
	</linearGradient>
	<path class="st0" d="M49,34c4.9,0,8.9-4,8.9-8.9c0-4.9-4-8.9-8.9-8.9s-8.9,4-8.9,8.9C40.1,30,44.1,34,49,34z M49,22.2   c1.6,0,2.9,1.3,2.9,2.9c0,1.6-1.3,2.9-2.9,2.9s-2.9-1.3-2.9-2.9C46.1,23.5,47.4,22.2,49,22.2z"/>
	<linearGradient id="SVGID_2_" gradientUnits="userSpaceOnUse" x1="33.95" y1="4.5667" x2="33.95" y2="97.4096">
		<stop offset="0" style="stop-color:#00EFD1"/>
		<stop offset="1" style="stop-color:#00ACEA"/>
	</linearGradient>
	<path class="st1" d="M34.1,38c0.6,0.6,1.4,0.9,2.1,0.9s1.5-0.3,2.1-0.9c1.2-1.2,1.2-3.1,0-4.2c-2.3-2.3-3.6-5.5-3.6-8.8   c0-3.3,1.3-6.3,3.6-8.6c1.2-1.2,1.2-3.1,0-4.2c-1.2-1.2-3.1-1.2-4.2,0c-3.5,3.4-5.4,8-5.4,12.8C28.7,29.9,30.6,34.5,34.1,38z"/>
	<linearGradient id="SVGID_3_" gradientUnits="userSpaceOnUse" x1="64.05" y1="4.5667" x2="64.05" y2="97.4096">
		<stop offset="0" style="stop-color:#00EFD1"/>
		<stop offset="1" style="stop-color:#00ACEA"/>
	</linearGradient>
	<path class="st2" d="M59.7,38c0.6,0.6,1.4,0.9,2.1,0.9c0.8,0,1.5-0.3,2.1-0.9c3.5-3.4,5.4-8,5.4-12.8c0-4.9-1.9-9.5-5.4-13   c-1.2-1.2-3.1-1.2-4.2,0c-1.2,1.2-1.2,3.1,0,4.2c2.3,2.3,3.6,5.5,3.6,8.8s-1.3,6.3-3.6,8.6C58.5,34.9,58.5,36.8,59.7,38z"/>
	<linearGradient id="SVGID_4_" gradientUnits="userSpaceOnUse" x1="22.9125" y1="4.5667" x2="22.9125" y2="97.4096">
		<stop offset="0" style="stop-color:#00EFD1"/>
		<stop offset="1" style="stop-color:#00ACEA"/>
	</linearGradient>
	<path class="st3" d="M26.7,46.5c0.8,0,1.5-0.3,2.1-0.9c1.2-1.2,1.2-3.1,0-4.2c-9-9-9-23.6,0-32.6c1.2-1.2,1.2-3.1,0-4.2   c-1.2-1.2-3.1-1.2-4.2,0c-11.3,11.3-11.3,29.7,0,41C25.2,46.2,25.9,46.5,26.7,46.5z"/>
	<linearGradient id="SVGID_5_" gradientUnits="userSpaceOnUse" x1="75.0875" y1="4.5667" x2="75.0875" y2="97.4096">
		<stop offset="0" style="stop-color:#00EFD1"/>
		<stop offset="1" style="stop-color:#00ACEA"/>
	</linearGradient>
	<path class="st4" d="M69.2,41.4c-1.2,1.2-1.2,3.1,0,4.2c0.6,0.6,1.4,0.9,2.1,0.9s1.5-0.3,2.1-0.9c11.3-11.3,11.3-29.7,0-41   c-1.2-1.2-3.1-1.2-4.2,0c-1.2,1.2-1.2,3.1,0,4.2C78.2,17.8,78.2,32.4,69.2,41.4z"/>
	<linearGradient id="SVGID_6_" gradientUnits="userSpaceOnUse" x1="49" y1="4.5667" x2="49" y2="97.4096">
		<stop offset="0" style="stop-color:#00EFD1"/>
		<stop offset="1" style="stop-color:#00ACEA"/>
	</linearGradient>
	<path class="st5" d="M74.2,93.9c0-0.1,0-0.1-0.1-0.2L62,67c0-0.1-0.1-0.2-0.2-0.3L51.7,44.4c-0.5-1.1-1.6-1.8-2.7-1.8   c-1.2,0-2.2,0.7-2.7,1.8L36.2,66.6c-0.1,0.1-0.1,0.2-0.2,0.3l-12.1,27c0,0.1,0,0.1-0.1,0.2c0,0.1-0.1,0.2-0.1,0.3   c0,0.1,0,0.2-0.1,0.3c0,0.1,0,0.2,0,0.3c0,0.1,0,0.2,0,0.3c0,0.1,0,0.2,0,0.3c0,0.1,0,0.2,0.1,0.3c0,0.1,0,0.2,0.1,0.3   c0,0.1,0.1,0.2,0.1,0.3c0,0.1,0.1,0.2,0.1,0.3c0.1,0.1,0.1,0.2,0.2,0.3c0,0.1,0.1,0.1,0.1,0.2c0.1,0.1,0.2,0.2,0.3,0.3l0.1,0.1   c0.1,0.1,0.3,0.2,0.4,0.2l0.1,0.1c0.2,0.1,0.4,0.2,0.6,0.2h0.1c0.2,0,0.3,0.1,0.5,0.1c0.4,0,0.7-0.1,1-0.2c0,0,0.1,0,0.1-0.1   c0.1-0.1,0.2-0.1,0.4-0.2c0.1,0,0.1-0.1,0.2-0.1c0.1,0,0.1-0.1,0.2-0.1l20.5-17l20.4,16.9c0,0,0,0,0.1,0c0.1,0.1,0.2,0.2,0.3,0.2   c0,0,0.1,0.1,0.2,0.1c0.1,0,0.2,0.1,0.3,0.1c0.1,0,0.1,0,0.2,0.1c0.1,0,0.2,0.1,0.3,0.1h0.1c0.2,0,0.3,0,0.5,0s0.4,0,0.6-0.1   c0.1,0,0.1,0,0.2-0.1c0.1,0,0.3-0.1,0.4-0.1c0,0,0.1,0,0.1-0.1c0.1-0.1,0.3-0.2,0.4-0.3l0.1-0.1c0.1-0.1,0.2-0.2,0.3-0.3   c0,0,0.1-0.1,0.1-0.2c0.1-0.1,0.1-0.2,0.2-0.3c0.4,0,0.5-0.1,0.5-0.2c0-0.1,0.1-0.2,0.1-0.3c0-0.1,0.1-0.2,0.1-0.3   c0-0.1,0-0.2,0.1-0.3c0-0.1,0-0.2,0-0.3c0-0.1,0-0.2,0-0.3c0-0.1,0-0.2,0-0.3c0-0.1,0-0.2-0.1-0.3C74.3,94.1,74.2,94,74.2,93.9z    M34.7,84.5l5.2-11.6l4.4,3.6L34.7,84.5z M42.5,67.3L49,52.9l6.5,14.4L49,72.7L42.5,67.3z M53.7,76.5l4.4-3.6l5.2,11.6L53.7,76.5z"/>
</g>
</svg>
